<?xml version="1.0" encoding="utf-8"?>
<!-- Generator: Adobe Illustrator 19.2.0, SVG Export Plug-In . SVG Version: 6.00 Build 0)  -->
<svg version="1.1" id="Layer_1" xmlns="http://www.w3.org/2000/svg" xmlns:xlink="http://www.w3.org/1999/xlink" x="0px" y="0px"
	 viewBox="0 0 124.7 48.2" style="enable-background:new 0 0 124.7 48.2;" xml:space="preserve">
<style type="text/css">
	.st0{clip-path:url(#SVGID_2_);}
	.st1{clip-path:url(#SVGID_4_);}
	.st2{clip-path:url(#SVGID_6_);}
	.st3{clip-path:url(#SVGID_8_);}
	.st4{clip-path:url(#SVGID_10_);}
	.st5{clip-path:url(#SVGID_2_);fill:#0BB4CE;}
</style>
<g>
	<defs>
		<rect id="SVGID_1_" x="-236.6" y="-390.5" width="595.3" height="841.9"/>
	</defs>
	<clipPath id="SVGID_2_">
		<use xlink:href="#SVGID_1_"  style="overflow:visible;"/>
	</clipPath>
	<g class="st0">
		<defs>
			<rect id="SVGID_3_" x="116.6" y="42.2" width="5.9" height="5.9"/>
		</defs>
		<clipPath id="SVGID_4_">
			<use xlink:href="#SVGID_3_"  style="overflow:visible;"/>
		</clipPath>
		<path class="st1" d="M122.5,45.2c0,1.6-1.3,3-3,3c-1.6,0-3-1.3-3-3c0-1.6,1.3-3,3-3C121.2,42.2,122.5,43.5,122.5,45.2"/>
	</g>
	<g class="st0">
		<defs>
			<rect id="SVGID_5_" x="72" y="2.3" width="14.9" height="44.1"/>
		</defs>
		<clipPath id="SVGID_6_">
			<use xlink:href="#SVGID_5_"  style="overflow:visible;"/>
		</clipPath>
		<path class="st2" d="M86.9,44.6c0,0.4-0.1,0.8-0.4,1.2c-0.3,0.4-0.7,0.6-1.3,0.6h-1.9c-4.9,0-7.3-2.4-7.3-7.2V17h-2.2
			c-0.6,0-1-0.2-1.3-0.6c-0.3-0.4-0.4-0.8-0.4-1.2c0-0.4,0.1-0.8,0.4-1.2c0.3-0.4,0.7-0.6,1.3-0.6H76V4c0-0.6,0.2-1,0.6-1.3
			c0.4-0.3,0.8-0.4,1.2-0.4c0.5,0,0.9,0.1,1.2,0.4C79.3,3,79.5,3.4,79.5,4v9.5h5.7c0.6,0,1,0.2,1.3,0.6c0.3,0.4,0.4,0.8,0.4,1.2
			c0,0.5-0.1,0.9-0.4,1.2c-0.3,0.4-0.7,0.6-1.3,0.6h-5.7v22.1c0,1.5,0.3,2.5,0.8,3c0.5,0.5,1.5,0.7,3,0.7h1.9c0.6,0,1,0.2,1.3,0.6
			C86.8,43.8,86.9,44.2,86.9,44.6"/>
	</g>
	<g class="st0">
		<defs>
			<rect id="SVGID_7_" x="86.1" y="12.4" width="27.1" height="35"/>
		</defs>
		<clipPath id="SVGID_8_">
			<use xlink:href="#SVGID_7_"  style="overflow:visible;"/>
		</clipPath>
		<path class="st3" d="M113.2,41.5c0,0.5-0.2,0.9-0.5,1.2c-1.4,1.5-3,2.7-4.8,3.5c-1.9,0.8-3.9,1.2-6.3,1.2c-2.5,0-4.7-0.5-6.6-1.4
			c-1.9-0.9-3.6-2.2-4.9-3.8c-1.3-1.6-2.3-3.5-3-5.6c-0.7-2.1-1-4.3-1-6.7c0-2.3,0.3-4.5,1-6.6c0.7-2.1,1.7-4,3-5.6
			c1.3-1.6,3-2.9,4.9-3.8c1.9-0.9,4.2-1.4,6.6-1.4c2.3,0,4.4,0.4,6.3,1.2c1.9,0.8,3.5,2,4.8,3.5c0.3,0.3,0.5,0.7,0.5,1.2
			c0,0.5-0.2,0.9-0.6,1.3c-0.4,0.4-0.8,0.6-1.2,0.6c-0.5,0-0.9-0.2-1.3-0.6c-1-1.2-2.3-2-3.7-2.7c-1.4-0.6-3-0.9-4.8-0.9
			c-1.8,0-3.5,0.3-5,1.1c-1.5,0.7-2.8,1.7-3.8,2.9c-1.1,1.2-1.9,2.7-2.4,4.4c-0.6,1.7-0.8,3.6-0.8,5.6c0,2,0.3,3.9,0.8,5.6
			c0.6,1.7,1.4,3.2,2.4,4.4c1.1,1.2,2.3,2.2,3.8,2.9c1.5,0.7,3.1,1.1,5,1.1c1.8,0,3.4-0.3,4.8-1c1.4-0.6,2.6-1.5,3.7-2.6
			c0.4-0.4,0.8-0.6,1.3-0.6c0.5,0,0.9,0.2,1.2,0.5C113.1,40.6,113.2,41,113.2,41.5"/>
	</g>
	<g class="st0">
		<defs>
			<rect id="SVGID_9_" x="45.8" y="12.4" width="26.6" height="19.3"/>
		</defs>
		<clipPath id="SVGID_10_">
			<use xlink:href="#SVGID_9_"  style="overflow:visible;"/>
		</clipPath>
		<path class="st4" d="M71.4,23.3c-0.7-2.1-1.7-4-3-5.6c-1.3-1.6-3-2.9-4.9-3.8c-1.9-0.9-4.2-1.4-6.6-1.4c-2.5,0-4.7,0.5-6.6,1.4
			c-1.6,0.8-1.9,0.9-3.7,2.5c-1.3,1.4-0.6,2.9-0.6,2.9c0.8,1.5,1.8,1.1,2.1,0.7c0.2-0.3,0.5-0.6,0.7-0.9c1-1.1,1.7-1.5,3.1-2.2
			c1.4-0.7,3.1-1,4.9-1c1.7,0,3.2,0.3,4.7,0.9c1.4,0.6,2.6,1.4,3.7,2.5c1,1.1,1.9,2.4,2.5,3.9c0.6,1.5,1,3.1,1.1,4.9H47.8
			c-0.4,0.1-1.1,0.5-1.1,1.7c0,0-0.1,1.9,1.6,1.9l0,0h22.4c0.5,0,0.9-0.2,1.2-0.6c0.4-0.4,0.5-0.8,0.5-1.2
			C72.4,27.6,72.1,25.4,71.4,23.3"/>
	</g>
	<path class="st5" d="M44.9,29.2L44.9,29.2c0.3-5.4-0.4-9.4-0.5-10.2c0,0,0,0,0,0C42.2,9,34,1.4,24.1,1.3
		C12.4,1.4,3.2,11.8,3.2,24.4c0,12.6,9.2,23.1,20.9,23.1c7,0,12.6-3.3,16.4-9.1c0.2-0.4,0.3-1.1,0-1.9c0,0-1.4-2-2.6-0.8
		c-0.6,1.1-0.8,1.5-1.6,2.4c-3.1,3.5-7.4,5.6-12.1,5.6c-4.7,0-8.9-2.1-12.1-5.6c-3.1-3.5-5.1-8.4-5.1-13.8c0-5.4,2-10.3,5.1-13.8
		C15.1,7.1,19.4,5,24.1,5c4.7,0,8.9,2.1,12.1,5.6c3.1,3.5,5.1,8.4,5.1,13.8c0,0,0,0.1,0,0.1l0-0.1c0,0-0.3,7.2,1,12
		c0.7,2.1,1.7,4,3,5.6c1.3,1.6,3,2.9,4.9,3.8c1.9,1,4.2,1.4,6.6,1.4c2.2,0,4.3-0.4,6.2-1.2c2-0.8,3.7-2.1,5.1-3.7
		c0.6-0.7,0.9-1.1,1-1.3c0.1-0.2,0.2-0.4,0.2-0.7c0-0.5-0.2-0.8-0.6-1.2c-0.4-0.3-0.8-0.5-1.3-0.5c-0.3,0-0.6,0.1-0.8,0.2
		c-0.2,0.1-0.5,0.4-0.7,0.7c-0.9,1.4-2.2,2.5-4,3.2c-1.7,0.7-3.5,1.1-5.1,1.1c-1.7,0-3.2-0.3-4.6-0.9c-1.4-0.6-2.6-1.5-3.6-2.5
		c-1-1.1-1.8-2.4-2.5-3.8c-0.6-1.5-1-3.1-1.1-4.9C45,31.7,44.9,30.3,44.9,29.2"/>
</g>
</svg>
